<?xml version="1.0" standalone="no"?>
<!DOCTYPE svg PUBLIC "-//W3C//DTD SVG 20010904//EN"
 "http://www.w3.org/TR/2001/REC-SVG-20010904/DTD/svg10.dtd">
<svg version="1.0" xmlns="http://www.w3.org/2000/svg"
 width="300.000000pt" height="300.000000pt" viewBox="0 0 300.000000 300.000000"
 preserveAspectRatio="xMidYMid meet">
<metadata>
Created by potrace 1.10, written by Peter Selinger 2001-2011
</metadata>
<g transform="translate(0.000000,300.000000) scale(0.100000,-0.100000)"
fill="#000000" stroke="none">
<path d="M1474 2993 c-48 -9 -59 -37 -62 -164 l-4 -119 30 -30 c38 -37 80 -40
119 -6 28 24 28 25 28 150 0 112 -2 127 -20 145 -22 20 -58 30 -91 24z m61
-36 c16 -12 18 -28 16 -133 -1 -98 -5 -121 -18 -131 -24 -19 -50 -16 -73 7
-17 17 -20 33 -20 125 0 92 3 108 20 125 23 23 49 26 75 7z"/>
<path d="M913 2798 c-21 -22 -27 -43 -24 -82 2 -28 208 -234 242 -241 67 -15
127 62 95 122 -8 15 -59 72 -114 126 -92 90 -102 97 -139 97 -28 0 -45 -6 -60
-22z m188 -106 c82 -81 99 -103 99 -128 0 -38 -16 -54 -54 -54 -25 0 -48 17
-128 97 -82 81 -98 103 -98 128 0 39 16 55 53 55 24 0 49 -19 128 -98z"/>
<path d="M1884 2719 c-56 -56 -108 -114 -114 -130 -25 -59 35 -128 99 -114 34
7 240 213 242 241 4 67 -26 104 -84 104 -37 0 -47 -7 -143 -101z m177 61 c13
-7 19 -21 19 -43 0 -27 -15 -47 -97 -129 -81 -82 -103 -98 -128 -98 -39 0 -55
16 -55 54 0 25 17 47 99 128 100 99 120 110 162 88z"/>
<path d="M1395 2266 c-63 -29 -129 -102 -143 -158 -6 -24 -14 -77 -18 -118
-21 -249 -173 -453 -402 -542 -72 -29 -163 -41 -357 -48 l-30 -2 35 -15 c53
-23 221 -13 327 21 190 61 348 216 418 409 25 68 30 94 41 207 4 41 15 91 25
111 70 139 272 167 381 52 44 -46 58 -93 58 -192 0 -275 -125 -558 -337 -761
-138 -133 -280 -219 -450 -270 -40 -12 -77 -28 -83 -35 -8 -10 -13 -144 -17
-442 l-5 -428 -32 -28 -31 -27 30 6 c17 4 39 15 50 25 19 19 20 34 23 449 l3
430 56 16 c471 137 823 593 823 1067 0 103 -14 147 -64 204 -79 90 -198 117
-301 69z"/>
<path d="M343 2096 c-100 -33 -169 -92 -220 -189 -25 -46 -28 -63 -28 -147 0
-77 4 -104 22 -142 48 -104 161 -190 267 -204 64 -9 55 8 -17 32 -110 36 -173
86 -219 174 -19 38 -23 60 -23 140 0 80 4 102 23 139 58 107 169 173 292 173
196 0 333 -150 318 -346 -11 -132 -100 -235 -243 -281 l-60 -20 42 -3 c88 -6
208 80 260 187 24 48 28 68 28 146 0 76 -4 98 -26 146 -58 124 -165 197 -300
205 -47 2 -89 -1 -116 -10z"/>
<path d="M2477 2100 c-99 -25 -183 -94 -229 -188 -30 -60 -33 -75 -33 -157 0
-78 4 -98 28 -146 52 -107 172 -193 260 -187 l42 3 -55 19 c-119 41 -172 82
-218 171 -36 72 -42 179 -12 257 79 210 368 270 529 109 69 -69 86 -112 86
-221 0 -80 -4 -102 -24 -140 -46 -89 -108 -138 -218 -174 -72 -24 -81 -41 -17
-32 106 14 219 100 267 204 18 38 22 66 22 142 0 89 -2 99 -34 158 -62 114
-167 182 -290 188 -36 2 -83 -1 -104 -6z"/>
<path d="M1866 1598 c-29 -92 -118 -264 -181 -347 -67 -88 -70 -80 76 -177
102 -68 183 -108 291 -143 l67 -22 3 -429 c3 -415 4 -430 23 -449 11 -10 34
-22 50 -25 l30 -7 -37 34 -38 35 0 419 c0 320 -3 423 -12 435 -7 9 -48 28 -91
42 -43 15 -106 40 -140 57 -65 33 -222 134 -232 149 -3 5 20 46 51 92 58 86
118 199 149 281 10 26 20 47 22 47 3 0 35 -25 71 -57 80 -67 201 -127 297
-148 85 -18 219 -19 260 -1 29 12 27 13 -49 19 -43 4 -102 7 -130 7 -139 0
-362 114 -431 219 -11 17 -22 31 -25 31 -3 0 -14 -28 -24 -62z"/>
<path d="M294 1380 c-150 -53 -271 -199 -282 -340 -5 -68 4 -61 25 16 20 78
43 120 97 180 50 57 133 105 217 127 31 8 65 19 75 25 33 19 -74 13 -132 -8z"/>
<path d="M2580 1385 c14 -7 43 -17 65 -21 22 -3 66 -20 98 -36 113 -56 181
-141 216 -267 11 -41 23 -77 27 -80 3 -3 4 21 2 54 -13 183 -207 366 -387 365
-45 -1 -45 -1 -21 -15z"/>
<path d="M4 75 c10 -38 31 -62 62 -68 13 -2 24 -4 24 -3 0 1 -21 24 -47 51
-44 47 -46 48 -39 20z"/>
<path d="M2947 48 c-46 -46 -47 -48 -20 -42 37 9 60 29 68 61 3 14 5 26 3 28
-2 1 -25 -20 -51 -47z"/>
</g>
</svg>
